<?xml version="1.0" standalone="no"?><!DOCTYPE svg PUBLIC "-//W3C//DTD SVG 1.1//EN" "http://www.w3.org/Graphics/SVG/1.1/DTD/svg11.dtd"><svg xmlns="http://www.w3.org/2000/svg" viewBox="0 0 650 400" version="1.1"><clipPath id="box"><rect x="0" y="0" width="650" height="400" style="fill:none;stroke:none;" /></clipPath><g clip-path="url(#box)"><rect x="0.00" y="0.00" width="650.00" height="400.00" style="fill:#FFFFFF;stroke:none;" /><path d="M0.00 400.00 L650.00 400.00 M0.00 360.00 L650.00 360.00 M0.00 320.00 L650.00 320.00 M0.00 280.00 L650.00 280.00 M0.00 240.00 L650.00 240.00 M0.00 200.00 L650.00 200.00 M0.00 160.00 L650.00 160.00 M0.00 120.00 L650.00 120.00 M0.00 79.00 L650.00 79.00 M0.00 39.00 L650.00 39.00 M0.00 0.00 L650.00 0.00 M0.00 0.00 L0.00 400.00 M54.00 0.00 L54.00 400.00 M108.00 0.00 L108.00 400.00 M162.00 0.00 L162.00 400.00 M216.00 0.00 L216.00 400.00 M270.00 0.00 L270.00 400.00 M325.00 0.00 L325.00 400.00 M379.00 0.00 L379.00 400.00 M433.00 0.00 L433.00 400.00 M487.00 0.00 L487.00 400.00 M541.00 0.00 L541.00 400.00 M595.00 0.00 L595.00 400.00 M650.00 0.00 L650.00 400.00 " style="fill:none;stroke:#D0D0D0;stroke-width:1;" /><path d="M325.00 0.00 L325.00 400.00 " style="fill:none;stroke:#000000;stroke-width:1;" /><path d="M318.50 400.00 L331.50 400.00 M318.50 360.00 L331.50 360.00 M318.50 320.00 L331.50 320.00 M318.50 280.00 L331.50 280.00 M318.50 240.00 L331.50 240.00 M318.50 200.00 L331.50 200.00 M318.50 160.00 L331.50 160.00 M318.50 120.00 L331.50 120.00 M318.50 80.00 L331.50 80.00 M318.50 40.00 L331.50 40.00 M318.50 0.00 L331.50 0.00 " style="fill:none;stroke:#000000;stroke-width:1;" /><path d="M0.00 200.00 L650.00 200.00 " style="fill:none;stroke:#000000;stroke-width:1;" /><path d="M0.00 193.50 L0.00 206.50 M54.17 193.50 L54.17 206.50 M108.33 193.50 L108.33 206.50 M162.50 193.50 L162.50 206.50 M216.67 193.50 L216.67 206.50 M270.83 193.50 L270.83 206.50 M325.00 193.50 L325.00 206.50 M379.17 193.50 L379.17 206.50 M433.33 193.50 L433.33 206.50 M487.50 193.50 L487.50 206.50 M541.67 193.50 L541.67 206.50 M595.83 193.50 L595.83 206.50 M650.00 193.50 L650.00 206.50 " style="fill:none;stroke:#000000;stroke-width:1;" /><text x="333.125" y="362.5" text-anchor="start" style="font:10px Droid Sans,Trebuchet MS,Arial,Helvetica,sans-serif;stroke:none;fill:#000000">-0.8</text><text x="333.125" y="322.5" text-anchor="start" style="font:10px Droid Sans,Trebuchet MS,Arial,Helvetica,sans-serif;stroke:none;fill:#000000">-0.6</text><text x="333.125" y="282.5" text-anchor="start" style="font:10px Droid Sans,Trebuchet MS,Arial,Helvetica,sans-serif;stroke:none;fill:#000000">-0.4</text><text x="333.125" y="242.50000000000003" text-anchor="start" style="font:10px Droid Sans,Trebuchet MS,Arial,Helvetica,sans-serif;stroke:none;fill:#000000">-0.2</text><text x="333.125" y="202.5" text-anchor="start" style="font:10px Droid Sans,Trebuchet MS,Arial,Helvetica,sans-serif;stroke:none;fill:#000000">0</text><text x="333.125" y="162.5" text-anchor="start" style="font:10px Droid Sans,Trebuchet MS,Arial,Helvetica,sans-serif;stroke:none;fill:#000000">0.2</text><text x="333.125" y="122.50000000000001" text-anchor="start" style="font:10px Droid Sans,Trebuchet MS,Arial,Helvetica,sans-serif;stroke:none;fill:#000000">0.4</text><text x="333.125" y="82.5" text-anchor="start" style="font:10px Droid Sans,Trebuchet MS,Arial,Helvetica,sans-serif;stroke:none;fill:#000000">0.6</text><text x="333.125" y="42.49999999999999" text-anchor="start" style="font:10px Droid Sans,Trebuchet MS,Arial,Helvetica,sans-serif;stroke:none;fill:#000000">0.8</text><text x="54.166666666666664" y="216.125" text-anchor="middle" style="font:10px Droid Sans,Trebuchet MS,Arial,Helvetica,sans-serif;stroke:none;fill:#000000">-2.5</text><text x="108.33333333333333" y="216.125" text-anchor="middle" style="font:10px Droid Sans,Trebuchet MS,Arial,Helvetica,sans-serif;stroke:none;fill:#000000">-2</text><text x="162.5" y="216.125" text-anchor="middle" style="font:10px Droid Sans,Trebuchet MS,Arial,Helvetica,sans-serif;stroke:none;fill:#000000">-1.5</text><text x="216.66666666666666" y="216.125" text-anchor="middle" style="font:10px Droid Sans,Trebuchet MS,Arial,Helvetica,sans-serif;stroke:none;fill:#000000">-1</text><text x="270.83333333333337" y="216.125" text-anchor="middle" style="font:10px Droid Sans,Trebuchet MS,Arial,Helvetica,sans-serif;stroke:none;fill:#000000">-0.5</text><text x="325" y="216.125" text-anchor="middle" style="font:10px Droid Sans,Trebuchet MS,Arial,Helvetica,sans-serif;stroke:none;fill:#000000">0</text><text x="379.1666666666667" y="216.125" text-anchor="middle" style="font:10px Droid Sans,Trebuchet MS,Arial,Helvetica,sans-serif;stroke:none;fill:#000000">0.5</text><text x="433.3333333333333" y="216.125" text-anchor="middle" style="font:10px Droid Sans,Trebuchet MS,Arial,Helvetica,sans-serif;stroke:none;fill:#000000">1</text><text x="487.5" y="216.125" text-anchor="middle" style="font:10px Droid Sans,Trebuchet MS,Arial,Helvetica,sans-serif;stroke:none;fill:#000000">1.5</text><text x="541.6666666666667" y="216.125" text-anchor="middle" style="font:10px Droid Sans,Trebuchet MS,Arial,Helvetica,sans-serif;stroke:none;fill:#000000">2</text><text x="595.8333333333333" y="216.125" text-anchor="middle" style="font:10px Droid Sans,Trebuchet MS,Arial,Helvetica,sans-serif;stroke:none;fill:#000000">2.5</text><path d="M-10.00 200.00 L-0.25 200.07 L0.75 200.08 L2.75 200.09 L4.75 200.09 L6.75 200.10 L8.75 200.12 L10.75 200.13 L12.75 200.14 L14.75 200.16 L16.75 200.17 L18.75 200.19 L20.75 200.21 L22.75 200.23 L24.75 200.26 L26.75 200.28 L28.75 200.31 L30.75 200.34 L32.75 200.37 L34.75 200.41 L36.75 200.45 L38.75 200.49 L40.75 200.54 L42.75 200.59 L44.75 200.64 L46.75 200.70 L48.75 200.76 L50.75 200.83 L52.75 200.91 L54.75 200.99 L56.75 201.08 L58.75 201.17 L60.75 201.27 L62.75 201.38 L64.75 201.50 L66.75 201.62 L68.75 201.76 L70.75 201.90 L72.75 202.06 L74.75 202.22 L76.75 202.40 L78.75 202.59 L80.75 202.80 L82.75 203.01 L84.75 203.24 L86.75 203.49 L88.75 203.75 L90.75 204.03 L92.75 204.33 L94.75 204.64 L96.75 204.98 L98.75 205.33 L100.75 205.70 L102.75 206.10 L104.75 206.52 L106.75 206.96 L108.75 207.43 L110.75 207.92 L112.75 208.43 L114.75 208.98 L116.75 209.55 L118.75 210.15 L120.75 210.78 L122.75 211.44 L124.75 212.13 L126.75 212.86 L128.75 213.61 L130.75 214.40 L132.75 215.22 L134.75 216.08 L136.75 216.97 L138.75 217.89 L140.75 218.86 L142.75 219.85 L144.75 220.89 L146.69 221.92 L148.56 222.95 L150.37 223.98 L152.13 225.01 L153.84 226.04 L155.51 227.06 L157.14 228.09 L158.73 229.11 L160.28 230.13 L161.80 231.15 L163.30 232.17 L164.77 233.18 L166.21 234.20 L167.63 235.22 L169.03 236.23 L170.40 237.24 L171.76 238.26 L173.11 239.27 L174.43 240.28 L175.75 241.29 L177.04 242.30 L178.33 243.31 L179.61 244.32 L180.87 245.32 L182.13 246.33 L183.38 247.34 L184.62 248.34 L185.85 249.34 L187.08 250.35 L188.30 251.35 L189.52 252.35 L190.74 253.36 L191.96 254.36 L193.17 255.36 L194.38 256.36 L195.60 257.36 L196.82 258.35 L198.03 259.35 L199.26 260.35 L200.48 261.34 L201.72 262.34 L202.96 263.33 L204.20 264.32 L205.46 265.31 L206.73 266.30 L208.01 267.29 L209.31 268.28 L210.62 269.26 L211.96 270.25 L213.31 271.23 L214.69 272.21 L216.10 273.19 L217.54 274.16 L219.01 275.13 L220.53 276.10 L222.10 277.07 L223.73 278.03 L225.43 278.98 L227.21 279.92 L229.09 280.86 L231.09 281.78 L233.09 282.61 L235.09 283.36 L237.09 284.01 L239.09 284.57 L241.09 285.02 L243.09 285.37 L245.09 285.62 L247.09 285.75 L249.09 285.77 L251.09 285.67 L253.09 285.45 L255.09 285.10 L257.09 284.63 L259.09 284.04 L261.09 283.31 L263.09 282.45 L265.09 281.46 L267.09 280.34 L268.87 279.23 L270.47 278.14 L271.94 277.06 L273.31 276.00 L274.60 274.94 L275.81 273.89 L276.97 272.85 L278.08 271.81 L279.15 270.77 L280.17 269.73 L281.17 268.70 L282.13 267.67 L283.07 266.65 L283.98 265.62 L284.86 264.60 L285.73 263.57 L286.58 262.55 L287.41 261.53 L288.22 260.51 L289.02 259.49 L289.80 258.48 L290.57 257.46 L291.33 256.44 L292.07 255.43 L292.80 254.41 L293.53 253.40 L294.24 252.39 L294.95 251.37 L295.64 250.36 L296.33 249.35 L297.01 248.34 L297.68 247.33 L298.35 246.32 L299.00 245.31 L299.66 244.30 L300.30 243.29 L300.94 242.28 L301.57 241.27 L302.20 240.26 L302.83 239.26 L303.45 238.25 L304.06 237.24 L304.67 236.23 L305.28 235.23 L305.88 234.22 L306.47 233.22 L307.07 232.21 L307.66 231.20 L308.25 230.20 L308.83 229.19 L309.41 228.19 L309.99 227.18 L310.57 226.18 L311.14 225.17 L311.71 224.17 L312.28 223.17 L312.84 222.16 L313.41 221.16 L313.97 220.16 L314.53 219.15 L315.09 218.15 L315.64 217.15 L316.20 216.14 L316.75 215.14 L317.30 214.14 L317.85 213.14 L318.40 212.13 L318.95 211.13 L319.50 210.13 L320.04 209.13 L320.59 208.13 L321.13 207.13 L321.68 206.13 L322.22 205.12 L322.77 204.12 L323.31 203.12 L323.85 202.12 L324.39 201.12 L324.93 200.12 L325.48 199.12 L326.02 198.12 L326.56 197.12 L327.10 196.12 L327.64 195.12 L328.19 194.12 L328.73 193.13 L329.27 192.13 L329.82 191.13 L330.36 190.13 L330.91 189.13 L331.45 188.13 L332.00 187.13 L332.55 186.14 L333.10 185.14 L333.65 184.14 L334.20 183.14 L334.75 182.15 L335.30 181.15 L335.86 180.15 L336.42 179.15 L336.98 178.16 L337.54 177.16 L338.10 176.16 L338.67 175.17 L339.23 174.17 L339.80 173.18 L340.37 172.18 L340.95 171.19 L341.53 170.19 L342.11 169.20 L342.69 168.20 L343.28 167.21 L343.87 166.21 L344.46 165.22 L345.05 164.22 L345.65 163.23 L346.26 162.24 L346.87 161.24 L347.48 160.25 L348.09 159.26 L348.72 158.27 L349.34 157.27 L349.97 156.28 L350.61 155.29 L351.25 154.30 L351.90 153.31 L352.55 152.32 L353.21 151.33 L353.88 150.34 L354.55 149.35 L355.24 148.36 L355.93 147.37 L356.62 146.39 L357.33 145.40 L358.05 144.41 L358.77 143.43 L359.51 142.44 L360.25 141.46 L361.01 140.47 L361.78 139.49 L362.56 138.51 L363.36 137.53 L364.17 136.54 L365.00 135.56 L365.85 134.59 L366.71 133.61 L367.59 132.63 L368.49 131.66 L369.42 130.68 L370.37 129.71 L371.35 128.74 L372.36 127.77 L373.41 126.81 L374.49 125.84 L375.61 124.89 L376.78 123.93 L378.00 122.98 L379.29 122.03 L380.65 121.09 L382.09 120.16 L383.64 119.23 L385.32 118.32 L387.17 117.43 L389.17 116.59 L391.17 115.88 L393.17 115.30 L395.17 114.85 L397.17 114.52 L399.17 114.31 L401.17 114.23 L403.17 114.26 L405.17 114.41 L407.17 114.66 L409.17 115.03 L411.17 115.50 L413.17 116.07 L415.17 116.73 L417.17 117.49 L419.17 118.34 L421.17 119.26 L423.17 120.27 L425.15 121.34 L427.01 122.40 L428.75 123.45 L430.41 124.50 L432.01 125.53 L433.54 126.57 L435.03 127.59 L436.48 128.62 L437.89 129.64 L439.27 130.66 L440.63 131.68 L441.96 132.69 L443.28 133.71 L444.58 134.72 L445.86 135.73 L447.13 136.74 L448.38 137.74 L449.63 138.75 L450.87 139.76 L452.10 140.76 L453.33 141.77 L454.55 142.77 L455.77 143.77 L456.98 144.77 L458.20 145.77 L459.41 146.77 L460.63 147.77 L461.84 148.77 L463.06 149.77 L464.28 150.76 L465.51 151.76 L466.73 152.75 L467.97 153.75 L469.21 154.74 L470.46 155.74 L471.72 156.73 L472.98 157.72 L474.26 158.71 L475.55 159.70 L476.84 160.69 L478.16 161.68 L479.48 162.67 L480.82 163.66 L482.18 164.65 L483.56 165.63 L484.95 166.62 L486.37 167.60 L487.80 168.59 L489.27 169.57 L490.75 170.55 L492.27 171.53 L493.81 172.51 L495.39 173.49 L497.00 174.47 L498.64 175.44 L500.33 176.42 L502.06 177.39 L503.84 178.36 L505.67 179.33 L507.56 180.30 L509.51 181.27 L511.51 182.23 L513.51 183.15 L515.51 184.03 L517.51 184.89 L519.51 185.70 L521.51 186.49 L523.51 187.24 L525.51 187.96 L527.51 188.64 L529.51 189.30 L531.51 189.93 L533.51 190.52 L535.51 191.09 L537.51 191.63 L539.51 192.15 L541.51 192.64 L543.51 193.10 L545.51 193.54 L547.51 193.95 L549.51 194.35 L551.51 194.72 L553.51 195.07 L555.51 195.40 L557.51 195.71 L559.51 196.01 L561.51 196.28 L563.51 196.54 L565.51 196.79 L567.51 197.02 L569.51 197.23 L571.51 197.43 L573.51 197.62 L575.51 197.80 L577.51 197.96 L579.51 198.12 L581.51 198.26 L583.51 198.39 L585.51 198.52 L587.51 198.63 L589.51 198.74 L591.51 198.84 L593.51 198.94 L595.51 199.02 L597.51 199.10 L599.51 199.18 L601.51 199.24 L603.51 199.31 L605.51 199.37 L607.51 199.42 L609.51 199.47 L611.51 199.51 L613.51 199.56 L615.51 199.60 L617.51 199.63 L619.51 199.66 L621.51 199.69 L623.51 199.72 L625.51 199.75 L627.51 199.77 L629.51 199.79 L631.51 199.81 L633.51 199.83 L635.51 199.84 L637.51 199.86 L639.51 199.87 L641.51 199.89 L643.51 199.90 L645.51 199.91 L647.51 199.92 L649.51 199.92 " style="fill:none;stroke:#000000;stroke-width:1;" /></g></svg>